<svg width="41" height="41" viewBox="0 0 41 41" fill="none" xmlns="http://www.w3.org/2000/svg">
<mask id="mask0_1945_33090" style="mask-type:alpha" maskUnits="userSpaceOnUse" x="0" y="0" width="41" height="41">
<rect x="0.666992" y="0.5" width="40" height="40" fill="#D9D9D9"/>
</mask>
<g mask="url(#mask0_1945_33090)">
<path d="M22.1307 23.8678H24.2247V18.6199H29.4726V16.526H24.2247V11.2781H22.1307V16.526H16.8829V18.6199H22.1307V23.8678ZM12.8786 30.4789C12.1623 30.4789 11.5487 30.2235 11.0379 29.7127C10.5272 29.202 10.2718 28.5884 10.2718 27.872V7.27383C10.2718 6.55749 10.5272 5.94394 11.0379 5.43316C11.5487 4.92238 12.1623 4.66699 12.8786 4.66699H33.4768C34.1932 4.66699 34.8067 4.92238 35.3175 5.43316C35.8283 5.94394 36.0837 6.55749 36.0837 7.27383V27.872C36.0837 28.5884 35.8283 29.202 35.3175 29.7127C34.8067 30.2235 34.1932 30.4789 33.4768 30.4789H12.8786ZM12.8786 28.3849H33.4768C33.605 28.3849 33.7226 28.3315 33.8294 28.2246C33.9363 28.1178 33.9897 28.0003 33.9897 27.872V7.27383C33.9897 7.1456 33.9363 7.02808 33.8294 6.92124C33.7226 6.81438 33.605 6.76095 33.4768 6.76095H12.8786C12.7504 6.76095 12.6329 6.81438 12.526 6.92124C12.4192 7.02808 12.3657 7.1456 12.3657 7.27383V27.872C12.3657 28.0003 12.4192 28.1178 12.526 28.2246C12.6329 28.3315 12.7504 28.3849 12.8786 28.3849ZM7.85732 35.5002C7.14096 35.5002 6.52741 35.2448 6.01665 34.734C5.50588 34.2232 5.25049 33.6097 5.25049 32.8934V10.2012H7.34445V32.8934C7.34445 33.0216 7.39788 33.1391 7.50474 33.246C7.61157 33.3528 7.7291 33.4062 7.85732 33.4062H30.5495V35.5002H7.85732Z" fill="#1C1B1F"/>
</g>
</svg>
